<mxfile host="app.diagrams.net" modified="2023-05-19T13:44:47.407Z" agent="Mozilla/5.0 (Windows NT 10.0; Win64; x64) AppleWebKit/537.36 (KHTML, like Gecko) Chrome/113.0.0.0 Safari/537.36" etag="R0IVmYtHDBZixFgL6h8i" version="21.3.2" type="github">
  <diagram name="Page-1" id="4amIJGpFAnok3loFPaDU">
    <mxGraphModel dx="1313" dy="1086" grid="0" gridSize="10" guides="1" tooltips="1" connect="1" arrows="1" fold="1" page="0" pageScale="1" pageWidth="827" pageHeight="1169" math="0" shadow="0">
      <root>
        <mxCell id="0" />
        <mxCell id="1" parent="0" />
        <mxCell id="VzGeEJfKSirzglptqGWm-12" style="edgeStyle=none;curved=1;rounded=0;orthogonalLoop=1;jettySize=auto;html=1;exitX=1;exitY=0.5;exitDx=0;exitDy=0;entryX=0;entryY=0.5;entryDx=0;entryDy=0;fontSize=12;startSize=8;endSize=8;strokeColor=none;" parent="1" source="VzGeEJfKSirzglptqGWm-9" target="VzGeEJfKSirzglptqGWm-11" edge="1">
          <mxGeometry relative="1" as="geometry" />
        </mxCell>
        <mxCell id="VzGeEJfKSirzglptqGWm-9" value="Utente" style="swimlane;whiteSpace=wrap;html=1;fontSize=16;movable=1;resizable=1;rotatable=1;deletable=1;editable=1;locked=0;connectable=1;" parent="1" vertex="1">
          <mxGeometry width="200" height="100" as="geometry" />
        </mxCell>
        <mxCell id="VzGeEJfKSirzglptqGWm-11" value="Klotski" style="swimlane;whiteSpace=wrap;html=1;fontSize=16;" parent="1" vertex="1">
          <mxGeometry x="635" width="200" height="100" as="geometry" />
        </mxCell>
        <mxCell id="elHTS2MzDjqfxb-_1dfj-15" value="&lt;div style=&quot;text-align: left;&quot;&gt;pezzi&lt;/div&gt;&lt;div style=&quot;text-align: left;&quot;&gt;tasto reset&lt;/div&gt;&lt;div style=&quot;text-align: left;&quot;&gt;tasto undo&lt;/div&gt;&lt;div style=&quot;text-align: left;&quot;&gt;counter mosse&lt;/div&gt;&lt;div style=&quot;text-align: left;&quot;&gt;tasto next best move&lt;/div&gt;" style="text;html=1;strokeColor=none;fillColor=none;align=center;verticalAlign=middle;whiteSpace=wrap;rounded=0;" parent="VzGeEJfKSirzglptqGWm-11" vertex="1">
          <mxGeometry x="-27" y="24" width="199" height="74" as="geometry" />
        </mxCell>
        <mxCell id="VzGeEJfKSirzglptqGWm-14" value="" style="endArrow=none;html=1;rounded=0;fontSize=12;startSize=8;endSize=8;curved=1;exitX=1;exitY=0.5;exitDx=0;exitDy=0;entryX=0;entryY=0.5;entryDx=0;entryDy=0;" parent="1" source="VzGeEJfKSirzglptqGWm-9" target="VzGeEJfKSirzglptqGWm-11" edge="1">
          <mxGeometry width="50" height="50" relative="1" as="geometry">
            <mxPoint x="301" y="174" as="sourcePoint" />
            <mxPoint x="351" y="124" as="targetPoint" />
          </mxGeometry>
        </mxCell>
        <mxCell id="VzGeEJfKSirzglptqGWm-15" value="Gioca" style="text;html=1;strokeColor=none;fillColor=none;align=center;verticalAlign=middle;whiteSpace=wrap;rounded=0;fontSize=16;" parent="1" vertex="1">
          <mxGeometry x="387" y="24" width="60" height="30" as="geometry" />
        </mxCell>
        <mxCell id="VzGeEJfKSirzglptqGWm-16" value="1" style="text;html=1;strokeColor=none;fillColor=none;align=center;verticalAlign=middle;whiteSpace=wrap;rounded=0;fontSize=13;" parent="1" vertex="1">
          <mxGeometry x="206" y="54" width="10" height="10" as="geometry" />
        </mxCell>
        <mxCell id="VzGeEJfKSirzglptqGWm-17" value="&lt;font style=&quot;font-size: 13px;&quot;&gt;1..*&lt;/font&gt;" style="text;html=1;strokeColor=none;fillColor=none;align=center;verticalAlign=middle;whiteSpace=wrap;rounded=0;fontSize=16;" parent="1" vertex="1">
          <mxGeometry x="616" y="54" width="10" height="10" as="geometry" />
        </mxCell>
        <mxCell id="3ECE0dAHvvkNO9SrSXKV-3" value="" style="endArrow=none;html=1;rounded=0;fontSize=12;startSize=8;endSize=8;curved=1;exitX=1;exitY=0.5;exitDx=0;exitDy=0;entryX=0;entryY=0.5;entryDx=0;entryDy=0;" parent="1" source="VzGeEJfKSirzglptqGWm-11" target="3ECE0dAHvvkNO9SrSXKV-8" edge="1">
          <mxGeometry width="50" height="50" relative="1" as="geometry">
            <mxPoint x="1023" y="-55" as="sourcePoint" />
            <mxPoint x="1268" y="50" as="targetPoint" />
          </mxGeometry>
        </mxCell>
        <mxCell id="3ECE0dAHvvkNO9SrSXKV-7" value="Produce" style="text;strokeColor=none;align=center;fillColor=none;html=1;verticalAlign=middle;whiteSpace=wrap;rounded=0;fontSize=16;" parent="1" vertex="1">
          <mxGeometry x="1003" y="26" width="117" height="30" as="geometry" />
        </mxCell>
        <mxCell id="3ECE0dAHvvkNO9SrSXKV-8" value="Query" style="swimlane;whiteSpace=wrap;html=1;fontSize=16;" parent="1" vertex="1">
          <mxGeometry x="1198" width="200" height="100" as="geometry" />
        </mxCell>
        <mxCell id="elHTS2MzDjqfxb-_1dfj-1" value="MenÃ¹" style="swimlane;whiteSpace=wrap;html=1;" parent="1" vertex="1">
          <mxGeometry y="-328" width="200" height="100" as="geometry" />
        </mxCell>
        <mxCell id="zoUdu8iCxYcncd2xAAxY-10" value="Configurazione&lt;br&gt;Salvataggio partita&lt;br&gt;Caricamento partita" style="text;html=1;strokeColor=none;fillColor=none;align=left;verticalAlign=middle;whiteSpace=wrap;rounded=0;" vertex="1" parent="elHTS2MzDjqfxb-_1dfj-1">
          <mxGeometry x="7" y="41" width="130" height="30" as="geometry" />
        </mxCell>
        <mxCell id="elHTS2MzDjqfxb-_1dfj-2" value="" style="endArrow=none;html=1;rounded=0;exitX=0.5;exitY=0;exitDx=0;exitDy=0;entryX=0.5;entryY=1;entryDx=0;entryDy=0;" parent="1" source="VzGeEJfKSirzglptqGWm-9" target="elHTS2MzDjqfxb-_1dfj-1" edge="1">
          <mxGeometry width="50" height="50" relative="1" as="geometry">
            <mxPoint x="516" y="-212" as="sourcePoint" />
            <mxPoint x="566" y="-262" as="targetPoint" />
          </mxGeometry>
        </mxCell>
        <mxCell id="elHTS2MzDjqfxb-_1dfj-14" value="Visualizza" style="text;strokeColor=none;align=center;fillColor=none;html=1;verticalAlign=middle;whiteSpace=wrap;rounded=0;rotation=90;" parent="1" vertex="1">
          <mxGeometry x="38" y="-143" width="155" height="30" as="geometry" />
        </mxCell>
        <mxCell id="elHTS2MzDjqfxb-_1dfj-16" value="Interroga" style="text;html=1;strokeColor=none;fillColor=none;align=center;verticalAlign=middle;whiteSpace=wrap;rounded=0;" parent="1" vertex="1">
          <mxGeometry x="1299" y="222" width="60" height="30" as="geometry" />
        </mxCell>
        <mxCell id="elHTS2MzDjqfxb-_1dfj-21" value="" style="endArrow=none;html=1;rounded=0;exitX=0.5;exitY=1;exitDx=0;exitDy=0;entryX=0.5;entryY=0;entryDx=0;entryDy=0;" parent="1" source="3ECE0dAHvvkNO9SrSXKV-8" edge="1" target="elHTS2MzDjqfxb-_1dfj-26">
          <mxGeometry width="50" height="50" relative="1" as="geometry">
            <mxPoint x="1582" y="410" as="sourcePoint" />
            <mxPoint x="1632" y="360" as="targetPoint" />
          </mxGeometry>
        </mxCell>
        <mxCell id="elHTS2MzDjqfxb-_1dfj-26" value="Database" style="swimlane;whiteSpace=wrap;html=1;" parent="1" vertex="1">
          <mxGeometry x="1198" y="379" width="200" height="100" as="geometry" />
        </mxCell>
        <mxCell id="zoUdu8iCxYcncd2xAAxY-15" value="Mosse precedenti&lt;br&gt;Next best moves" style="text;html=1;strokeColor=none;fillColor=none;align=left;verticalAlign=middle;whiteSpace=wrap;rounded=0;" vertex="1" parent="elHTS2MzDjqfxb-_1dfj-26">
          <mxGeometry x="6" y="33" width="111" height="30" as="geometry" />
        </mxCell>
        <mxCell id="zoUdu8iCxYcncd2xAAxY-3" value="Output" style="swimlane;whiteSpace=wrap;html=1;" vertex="1" parent="1">
          <mxGeometry x="635" y="379" width="200" height="100" as="geometry" />
        </mxCell>
        <mxCell id="zoUdu8iCxYcncd2xAAxY-6" value="previous configuration&lt;br&gt;next best move" style="text;html=1;strokeColor=none;fillColor=none;align=center;verticalAlign=middle;whiteSpace=wrap;rounded=0;" vertex="1" parent="zoUdu8iCxYcncd2xAAxY-3">
          <mxGeometry x="4" y="38" width="158" height="30" as="geometry" />
        </mxCell>
        <mxCell id="zoUdu8iCxYcncd2xAAxY-4" value="" style="endArrow=none;html=1;rounded=0;exitX=1;exitY=0.5;exitDx=0;exitDy=0;entryX=0;entryY=0.5;entryDx=0;entryDy=0;" edge="1" parent="1" source="zoUdu8iCxYcncd2xAAxY-3" target="elHTS2MzDjqfxb-_1dfj-26">
          <mxGeometry width="50" height="50" relative="1" as="geometry">
            <mxPoint x="917" y="524" as="sourcePoint" />
            <mxPoint x="967" y="474" as="targetPoint" />
          </mxGeometry>
        </mxCell>
        <mxCell id="zoUdu8iCxYcncd2xAAxY-5" value="Produce" style="text;html=1;strokeColor=none;fillColor=none;align=center;verticalAlign=middle;whiteSpace=wrap;rounded=0;" vertex="1" parent="1">
          <mxGeometry x="987" y="402" width="60" height="30" as="geometry" />
        </mxCell>
        <mxCell id="zoUdu8iCxYcncd2xAAxY-8" value="" style="endArrow=none;html=1;rounded=0;entryX=0;entryY=0.5;entryDx=0;entryDy=0;exitX=0.5;exitY=1;exitDx=0;exitDy=0;" edge="1" parent="1" source="VzGeEJfKSirzglptqGWm-9" target="zoUdu8iCxYcncd2xAAxY-3">
          <mxGeometry width="50" height="50" relative="1" as="geometry">
            <mxPoint x="73" y="393" as="sourcePoint" />
            <mxPoint x="595" y="447" as="targetPoint" />
            <Array as="points">
              <mxPoint x="100" y="426" />
            </Array>
          </mxGeometry>
        </mxCell>
        <mxCell id="zoUdu8iCxYcncd2xAAxY-14" value="Visualizza" style="text;html=1;strokeColor=none;fillColor=none;align=center;verticalAlign=middle;whiteSpace=wrap;rounded=0;" vertex="1" parent="1">
          <mxGeometry x="327" y="399" width="60" height="30" as="geometry" />
        </mxCell>
      </root>
    </mxGraphModel>
  </diagram>
</mxfile>
